<?xml version="1.0" encoding="utf-8"?>
<svg xmlns="http://www.w3.org/2000/svg" xmlns:xlink="http://www.w3.org/1999/xlink" version= "1.1" width="720px" height="1512px" viewBox="0 0 720 1512">
<g id="layer1">
<g>
<g style="fill:rgb(0,0,0); fill-opacity:1.0; stroke-linejoin: miter">
<path d="M257.95,530.23334Q262.15002,530.23334,265.55,531.93335Q268.85,533.73334,270.65,536.63336Q272.45,539.43335,272.45,543.23334Q272.45,548.93335,269.05,552.63336Q265.75,556.43335,258.95,556.43335L251.95001,556.43335L251.95001,530.23334 Z M386.55,534.3333L394.44998,558.63336L378.35,558.63336L386.35,534.3333 Z M515.05005,528.8334Q521.05005,528.8334,525.95,532.13336Q530.75,535.5333,533.65,541.8333Q536.4501,548.13336,536.4501,556.93335Q536.4501,562.13336,535.05,567.23334Q533.55005,572.23334,530.85,576.13336Q528.25,579.93335,523.95,582.23334Q519.65,584.5333,514.55,584.5333Q504.95,584.5333,498.95,576.8334Q492.95,569.0333,492.95,556.5333Q492.95,548.23334,495.75,541.93335Q498.45,535.63336,503.35,532.23334Q508.25,528.8334,515.05005,528.8334 Z M131.15,528.0333L130.15,537.8333L131.84999,537.8333Q133.25,533.63336,135.54999,532.23334Q138.04999,530.8334,143.25,530.8334L167.95,530.8334L130.15,583.8334L130.15,585.3334L178.25,585.3334L180.34999,571.5333L178.65,571.5333Q176.65,577.63336,172.75,580.0333Q168.95,582.5333,161.75,582.5333L140.15,582.5333L177.75,529.8334L177.75,528.0333 Z M186.84999,528.0333L186.84999,529.73334Q190.65,529.73334,191.95,531.63336Q193.35,533.63336,193.35,538.8333L193.35,574.63336Q193.35,580.13336,191.85,581.8334Q190.15,583.63336,186.84999,583.63336L186.84999,585.3334L228.15,585.3334L230.75,574.63336L229.05,574.63336Q227.55,579.5333,224.54999,581.0333Q221.54999,582.5333,219.85,582.5333L205.15,582.5333Q202.75,582.5333,201.85,581.5333Q200.95,580.63336,200.95,578.63336L200.95,558.13336L217.04999,558.13336Q218.54999,558.13336,219.54999,558.43335Q220.65,558.73334,221.25,559.3334Q222.45,560.43335,223.15,563.63336L224.85,563.63336L224.85,549.73334L223.15,549.73334Q222.65,552.43335,222.04999,553.43335Q221.35,554.63336,220.25,554.93335Q219.54999,555.3334,218.54999,555.3334L200.95,555.3334L200.95,530.8334L221.04999,530.73334Q223.75,531.13336,225.04999,532.63336Q226.25,533.93335,227.05,537.63336L228.15,537.63336L228.15,528.0333 Z M237.85,528.0333L237.85,529.73334Q241.35,529.73334,242.95001,531.43335Q244.35,533.3333,244.35,538.63336L244.35,574.5333Q244.35,580.0333,242.85,581.8334Q241.35,583.63336,237.85,583.63336L237.85,585.3334L258.45,585.3334L258.45,583.63336Q254.85,583.63336,253.35,581.5333Q251.95001,579.5333,251.95001,574.5333L251.95001,558.8334L256.55,558.8334Q260.25,558.8334,263.05,560.93335Q266.05,563.23334,267.55,565.63336Q267.95,566.13336,268.45,567.0333Q269.65,568.8334,270.55,570.23334Q271.15,571.23334,271.95,572.5333Q272.75,573.8334,273.35,574.8334Q277.45,581.23334,280.75,585.3334L292.45,585.3334L292.45,583.63336Q288.95,583.13336,286.75,580.73334Q284.34998,578.0333,280.85,572.3334L277.55,567.13336L274.75,562.93335Q271.95,559.23334,268.65002,557.13336Q271.95,556.5333,276.15002,553.73334Q280.45,550.93335,280.45,543.0333Q280.45,540.0333,279.55002,537.5333Q278.45,534.93335,276.75,533.3333Q273.05,529.73334,269.25,529.0333Q266.55,528.3333,265.25,528.23334Q263.05,528.0333,261.35,528.0333 Z M385.95,527.43335L370.15,574.63336Q368.85,578.0333,368.25,579.3334Q367.14996,581.23334,365.75,582.23334Q364.34998,583.3334,361.65,583.63336L361.65,585.3334L376.45,585.3334L376.45,583.63336Q371.84998,583.63336,371.84998,579.93335L377.25,562.13336L395.74997,562.13336L400.94998,578.0333L401.25,578.73334Q401.44998,579.3334,401.44998,579.93335Q401.44998,582.8334,396.44998,583.63336L396.44998,585.3334L416.65,585.3334L416.65,583.63336Q413.05,583.63336,411.35,582.23334Q409.65,580.63336,408.44998,576.73334L391.84998,527.43335 Z M420.75,528.0333L420.75,529.73334Q422.45,529.73334,423.95,530.3334Q425.55,530.93335,426.35,531.93335Q428.15,534.0333,430.25,539.63336L447.95,586.13336L449.55,586.13336L466.45,540.93335Q468.75,535.0333,471.15,532.43335Q473.75,529.8334,476.85,529.8334L476.85,528.0333L460.15002,528.0333L460.15002,529.73334Q465.25,529.73334,465.25,533.73334L451.15,573.43335Q450.95,573.3334,448.05002,565.73334Q448.05002,565.63336,447.55,564.5333Q445.95,560.13336,445.15,557.93335L442.25,549.8334L438.05,537.63336L436.55002,533.5333Q436.55002,531.8333,437.95,530.73334Q439.25,529.73334,441.55,529.73334L441.55,528.0333 Z M329.25,526.63336Q322.25,526.63336,315.15002,530.5333Q308.25,534.5333,304.05,541.63336Q299.75,548.73334,299.75,558.3334Q299.75,565.63336,303.15002,572.0333Q306.55,578.63336,314.05,582.63336Q321.65,586.73334,333.34998,586.73334L337.45,586.43335Q338.55,586.43335,339.45,586.3334L341.65,586.3334Q344.15,586.3334,346.05,586.0333L349.35,585.3334L349.35,569.93335Q349.35,566.0333,350.95,564.13336Q352.55002,562.23334,356.45,562.23334L356.45,560.5333L333.25,560.5333L333.25,562.23334L335.45,562.23334Q339.05,562.23334,340.34998,564.3334Q341.75,566.5333,341.75,571.73334L341.75,577.93335Q341.75,581.3334,338.85,582.73334Q336.15002,584.0333,332.15002,584.0333Q328.75,584.0333,325.75,583.13336Q322.45,582.0333,320.05,580.23334Q314.65,576.3334,311.65,569.73334Q308.55,563.3334,308.55,554.8334Q308.55,551.73334,308.95,549.43335Q309.55,546.23334,310.05,544.43335Q311.85,539.13336,314.45,535.93335Q317.15002,532.63336,321.05,530.63336Q324.84998,528.8334,329.25,528.8334Q333.25,528.8334,337.55,530.5333Q341.75,532.13336,344.65002,535.73334Q347.65002,539.13336,348.25,544.3333L349.84998,544.3333L349.84998,527.43335L348.05,527.43335Q347.15,529.3334,344.85,529.3334Q343.35,529.3334,341.75,528.93335L338.05002,527.93335Q336.05,527.3333,334.25,527.0333Q332.75,526.63336,329.25,526.63336 Z M514.85,526.63336Q506.45,526.63336,499.25,530.5333Q492.25003,534.43335,488.15,541.23334Q484.15002,547.93335,484.15002,556.43335Q484.15002,560.8334,485.15002,564.43335Q486.05002,567.93335,488.25,571.73334Q492.35,578.8334,499.25,582.73334Q506.25,586.73334,514.65,586.73334Q520.85,586.73334,526.65,584.43335Q532.25,582.23334,536.4501,578.0333Q540.65,573.8334,542.85,568.3334Q545.25,562.63336,545.25,556.43335Q545.25,548.13336,541.25,541.43335Q537.25,534.5333,530.15,530.63336Q523.15,526.63336,514.85,526.63336 Z M572.45,526.63336Q568.05005,526.63336,564.35,528.63336Q560.65,530.5333,558.75,533.8333Q556.85004,537.0333,556.85004,541.43335Q556.85004,548.5333,561.75,553.43335Q563.55005,555.43335,567.25,557.63336L570.85,559.93335L574.75,562.43335Q578.95,565.13336,581.25,568.0333Q583.55005,570.93335,583.55005,574.3334Q583.55005,576.0333,583.15,577.23334Q582.55005,579.0333,582.05005,579.8334Q580.35,582.23334,578.05005,583.3334Q575.65,584.5333,572.05005,584.5333Q569.25,584.5333,565.9501,583.0333Q562.45,581.3334,560.45,578.3334Q558.25,575.23334,558.25,570.43335L556.55005,570.43335L556.55005,585.93335L558.25,585.93335Q559.15,583.73334,560.45,583.73334Q561.05005,584.13336,562.45,584.63336L565.4501,585.73334Q568.75,586.93335,571.75,586.93335L573.55005,586.73334Q576.55005,586.73334,579.85004,585.3334Q583.25,583.8334,585.05005,581.93335Q587.45,579.63336,588.65,576.8334Q589.25,575.13336,589.55,573.73334Q589.85004,572.23334,589.85004,570.43335Q589.85004,567.63336,588.75,564.63336Q587.75,561.73334,584.95,559.0333Q582.05005,556.13336,578.25,554.0333L570.25,549.0333Q566.55,546.63336,564.15,543.73334Q562.05005,541.0333,562.05005,537.43335Q562.05005,533.3333,565.05005,531.13336Q567.9501,528.8334,572.35,528.8334Q575.45,528.8334,578.15,530.13336Q580.95,531.3333,582.75,534.0333Q584.55005,536.43335,585.05005,540.63336L586.75,540.63336L586.75,527.23334L585.15,527.23334L584.55005,528.63336Q584.35004,528.8334,583.65,528.8334L582.35,528.63336L580.85,528.23334L578.95,527.5333Q577.85004,527.13336,576.95,527.0333Q575.25,526.63336,572.45,526.63336 Z"/>
</g>
</g>
</g>
</svg>